<?xml version="1.0" encoding="utf-8"?>
<!-- Svg Vector Icons : http://www.onlinewebfonts.com/icon -->
<!DOCTYPE svg PUBLIC "-//W3C//DTD SVG 1.1//EN" "http://www.w3.org/Graphics/SVG/1.1/DTD/svg11.dtd">
<svg version="1.1" xmlns="http://www.w3.org/2000/svg" xmlns:xlink="http://www.w3.org/1999/xlink" x="0px" y="0px" viewBox="0 0 256 256" enable-background="new 0 0 256 256" xml:space="preserve">
<metadata> Svg Vector Icons : http://www.onlinewebfonts.com/icon </metadata>
<g><g><g><g id="facebook"><g><path fill="#000000" d="M193.1,10l-35.9,0c0,0-0.7,0-2,0c-7.4,0-44.6,2-54.7,42c-0.2,0.4-3.6,10.4-3.6,33.7H62.9c-3,0-5.5,2.5-5.5,5.5v31.4c0,3,2.5,5.5,5.5,5.5h37.2v112.6c0,3,2.5,5.5,5.5,5.5h42.6c3,0,5.5-2.5,5.5-5.5V128H191c3,0,5.5-2.5,5.5-5.5V91.1c0-3-2.5-5.5-5.5-5.5h-37.2V72.1c0-9,5.7-18.5,21.7-18.5h17.8c3,0,5.5-2.5,5.5-5.5V15.5C198.6,12.5,196.2,10,193.1,10z M187.7,42.7h-12.3c-22.5,0-32.6,14.8-32.6,29.5v18.9c0,3,2.5,5.5,5.5,5.5h37.3v20.5h-37.3c-3,0-5.5,2.5-5.5,5.5v112.5H111V122.4c0-3-2.5-5.5-5.5-5.5H68.3V96.6h34.1c1.5,0,2.9-0.6,3.9-1.6c1-1.1,1.6-2.5,1.6-3.9c-0.5-24.9,2.9-35.4,3.1-35.9c8.1-31.7,35.9-34.2,44.3-34.2c0.8,0,1.2,0,1.7,0h30.8V42.7L187.7,42.7z"/></g></g></g><g></g><g></g><g></g><g></g><g></g><g></g><g></g><g></g><g></g><g></g><g></g><g></g><g></g><g></g><g></g></g></g>
</svg>